<?xml version="1.0" encoding="UTF-8"?>
<svg width="739.57px" height="183.84px" style="background:rgb(253, 253, 253)" preserveAspectRatio="xMidYMid" viewBox="-119.78 -16.919 739.57 183.84" xmlns="http://www.w3.org/2000/svg">
<defs>
<filter id="a">
<feFlood flood-color="#91c1e8" result="flood-1"/>
<feMorphology in="SourceAlpha" radius="1" result="erode"/>
<feComposite in="flood-1" in2="erode" operator="in" result="comp1"/>
<feConvolveMatrix divisor="1" in="comp1" kernelMatrix="0 0 0 1 1 1 0 0 0" order="3,3" result="convolve"/>
<feOffset dx="-3" dy="0" in="convolve" result="extrude"/>
<feComposite in="flood-1" in2="extrude" operator="in" result="comp-extrude"/>
<feFlood flood-color="#dce4eb" result="flood-2"/>
<feComposite in="flood-2" in2="SourceAlpha" operator="in" result="comp2"/>
<feMorphology in="comp2" operator="dilate" radius="1" result="dilate"/>
<feOffset dx="-4.5" dy="0" in="dilate" result="offset"/>
<feGaussianBlur in="offset" result="blur" stdDeviation="5.8"/>
<feComponentTransfer in="blur" result="shadow">
<feFuncA intercept="-0.2" slope="0.8" type="linear"/>
</feComponentTransfer>
<feMerge>
<feMergeNode in="shadow"/>
<feMergeNode in="comp-extrude"/>
<feMergeNode in="SourceGraphic"/>
</feMerge>
</filter>
</defs>
<g filter="url(#a)">
<g transform="translate(-15.945 112.5)">
<path d="m87.99-70.02v70.02h-10.01v-20.02h-55.86v-9.96h55.86v-30.03h-35.89q-5.13 0-9.67 1.98t-7.91 5.37-5.34 7.93q-1.98 4.54-1.98 9.72v35.01h-10.01v-35.01q0-4.83 1.24-9.3 1.25-4.47 3.52-8.35t5.47-7.08 7.08-5.49q3.88-2.3 8.32-3.54 4.45-1.25 9.28-1.25h45.9zm35.2 60.01v10.01h-2.49q-3.66 0-6.83-1.37-3.18-1.36-5.57-3.73t-3.76-5.57-1.37-6.81v-57.52h10.01v57.52q0 1.56 0.59 2.9 0.59 1.35 1.61 2.37 1.03 1.03 2.39 1.61 1.37 0.59 2.93 0.59h2.49zm72.71-27.49q0 3.66-1.37 6.84-1.37 3.17-3.73 5.54-2.37 2.37-5.57 3.73-3.2 1.37-6.81 1.37h-38.33q1.07 2.2 2.68 4.05 1.61 1.86 3.62 3.18 2 1.32 4.37 2.05t4.95 0.73h32.72v10.01h-32.72q-5.66-0.05-10.64-2.22t-8.67-5.91-5.83-8.72q-2.15-4.98-2.15-10.64t2.15-10.64q2.14-4.99 5.83-8.72 3.69-3.74 8.67-5.91t10.64-2.22h22.71q3.61 0 6.81 1.37 3.2 1.36 5.57 3.73 2.36 2.37 3.73 5.54 1.37 3.18 1.37 6.84zm-57.28 7.52h39.8q1.51 0 2.88-0.59 1.37-0.58 2.39-1.61 1.03-1.02 1.61-2.39 0.59-1.37 0.59-2.93 0-1.51-0.59-2.88-0.58-1.37-1.61-2.39-1.02-1.03-2.39-1.64t-2.88-0.61h-22.71q-3.32 0-6.22 1.17-2.91 1.17-5.18 3.2t-3.76 4.79q-1.49 2.75-1.93 5.88zm73.49-40.04 67.77 70.02h-13.08l-27.4-28.22-27.29 28.22h-13.14l33.94-35.01-33.94-35.01h13.14zm54.69 0h13.08l-30.51 31.4-6.5-6.69 23.93-24.71zm84.81 42.53q0 5.66-2.15 10.64t-5.83 8.72q-3.69 3.74-8.67 5.91t-10.64 2.22h-15.38q-5.67-0.05-10.65-2.22t-8.67-5.91q-3.68-3.74-5.83-8.72t-2.15-10.64 2.15-10.67q2.15-5 5.83-8.74 3.69-3.73 8.67-5.91 4.98-2.17 10.65-2.17h15.38q3.76 0 7.27 0.98 3.52 0.97 6.54 2.78 3.03 1.81 5.52 4.32 2.49 2.52 4.25 5.57t2.73 6.56q0.98 3.52 0.98 7.28zm-9.96 0q0-3.61-1.37-6.79-1.36-3.17-3.71-5.54-2.34-2.37-5.49-3.76t-6.76-1.44h-15.38q-3.62 0.05-6.77 1.44t-5.49 3.76-3.69 5.54q-1.34 3.18-1.34 6.79t1.34 6.79q1.35 3.17 3.69 5.54t5.49 3.76 6.77 1.39h15.38q3.61 0 6.76-1.39t5.49-3.76q2.35-2.37 3.71-5.54 1.37-3.18 1.37-6.79zm87.35 0q0 5.66-2.14 10.64-2.15 4.98-5.84 8.72t-8.67 5.91-10.64 2.22h-15.38q-5.67-0.05-10.65-2.22t-8.66-5.91q-3.69-3.74-5.84-8.72t-2.15-10.64 2.15-10.67q2.15-5 5.84-8.74 3.68-3.73 8.66-5.91 4.98-2.17 10.65-2.17h15.38q3.76 0 7.27 0.98 3.52 0.97 6.55 2.78 3.02 1.81 5.51 4.32 2.5 2.52 4.25 5.57 1.76 3.05 2.74 6.56 0.97 3.52 0.97 7.28zm-9.96 0q0-3.61-1.36-6.79-1.37-3.17-3.72-5.54-2.34-2.37-5.49-3.76t-6.76-1.44h-15.38q-3.62 0.05-6.76 1.44-3.15 1.39-5.5 3.76-2.34 2.37-3.68 5.54-1.35 3.18-1.35 6.79t1.35 6.79q1.34 3.17 3.68 5.54 2.35 2.37 5.5 3.76 3.14 1.39 6.76 1.39h15.38q3.61 0 6.76-1.39t5.49-3.76q2.35-2.37 3.72-5.54 1.36-3.18 1.36-6.79zm105.67-7.52q0 7.28-2.3 13.67-2.29 6.4-6.52 11.13-4.22 4.74-10.13 7.48-5.91 2.73-13.13 2.73h-23.29q-7.28 0-13.24-2.73-5.95-2.74-10.18-7.48-4.22-4.73-6.52-11.13-2.29-6.39-2.29-13.67 0-7.23 2.29-13.6 2.3-6.37 6.52-11.13 4.23-4.76 10.18-7.52 5.96-2.76 13.24-2.76h23.29q7.22 0 13.13 2.76t10.13 7.52q4.23 4.76 6.52 11.13 2.3 6.37 2.3 13.6zm-10.01 0q0-5.18-1.52-9.72-1.51-4.54-4.37-7.93-2.85-3.39-6.93-5.37t-9.25-1.98h-23.29q-5.18 0-9.31 1.98-4.12 1.98-6.98 5.37-2.85 3.39-4.39 7.93t-1.54 9.72 1.54 9.74q1.54 4.57 4.39 7.96 2.86 3.39 6.98 5.35 4.13 1.95 9.31 1.95h23.29q5.17 0 9.25-1.95 4.08-1.96 6.93-5.35 2.86-3.39 4.37-7.96 1.52-4.56 1.52-9.74z" fill="#071b53"/>
</g>
</g>
<style>text {
  font-size: 64px;
  font-family: Arial Black;
  dominant-baseline: central;
  text-anchor: middle;
}</style>
</svg>
